<svg xmlns="http://www.w3.org/2000/svg" viewBox="0 0 1200 675" fill="none">
  <defs>
    <linearGradient id="bgsig" x1="0" y1="0" x2="1200" y2="675" gradientUnits="userSpaceOnUse">
      <stop offset="0" stop-color="#0b1220"/>
      <stop offset="1" stop-color="#111c33"/>
    </linearGradient>
    <linearGradient id="accsig" x1="0" y1="0" x2="1" y2="1">
      <stop offset="0" stop-color="#60a5fa"/>
      <stop offset="1" stop-color="#3b82f6"/>
    </linearGradient>
  </defs>
  <rect width="1200" height="675" fill="url(#bgsig)"/>
  <circle cx="980" cy="150" r="200" fill="#3b82f6" opacity="0.12"/>
  <!-- Mapa: parcelas catastrales -->
  <g stroke="#2a3a5c" stroke-width="2" fill="#0f1a2e">
    <path d="M360 180 L560 150 L740 210 L720 360 L520 410 L360 360 Z"/>
    <path d="M560 150 L740 210 L740 210" />
    <path d="M520 410 L520 210" stroke="#22304d"/>
    <path d="M360 280 L720 300" stroke="#22304d"/>
    <path d="M600 165 L620 405" stroke="#22304d"/>
  </g>
  <!-- Ruta -->
  <path d="M400 340 C480 300 520 250 600 250 C680 250 700 210 760 210" stroke="url(#accsig)" stroke-width="5" stroke-dasharray="14 12" fill="none" opacity="0.8"/>
  <!-- Pin de ubicacion -->
  <g>
    <path d="M760 150 c0 60 -46 92 -46 92 s-46 -32 -46 -92 a46 46 0 1 1 92 0 z" fill="url(#accsig)"/>
    <circle cx="714" cy="150" r="17" fill="#0b1220"/>
  </g>
  <text x="80" y="560" fill="#e2e8f0" font-family="Segoe UI, Arial, sans-serif" font-size="46" font-weight="700">SIG · Catastro</text>
  <text x="80" y="602" fill="#7c93b8" font-family="Segoe UI, Arial, sans-serif" font-size="26">QGIS · ArcGIS · Informes prediales</text>
</svg>
