<svg xmlns="http://www.w3.org/2000/svg" viewBox="0 0 1200 675" fill="none">
  <defs>
    <linearGradient id="bg" x1="0" y1="0" x2="1200" y2="675" gradientUnits="userSpaceOnUse">
      <stop offset="0" stop-color="#0b1220"/>
      <stop offset="1" stop-color="#111c33"/>
    </linearGradient>
    <linearGradient id="acc" x1="0" y1="0" x2="1" y2="1">
      <stop offset="0" stop-color="#60a5fa"/>
      <stop offset="1" stop-color="#3b82f6"/>
    </linearGradient>
  </defs>
  <rect width="1200" height="675" fill="url(#bg)"/>
  <g stroke="#1e2b45" stroke-width="1">
    <path d="M0 168h1200M0 337h1200M0 506h1200M300 0v675M600 0v675M900 0v675"/>
  </g>
  <circle cx="1000" cy="140" r="180" fill="#3b82f6" opacity="0.12"/>
  <!-- Browser wireframe -->
  <rect x="360" y="150" width="480" height="330" rx="16" fill="#0f1a2e" stroke="#2a3a5c"/>
  <rect x="360" y="150" width="480" height="46" rx="16" fill="#16233d"/>
  <circle cx="386" cy="173" r="6" fill="#3b82f6"/>
  <circle cx="408" cy="173" r="6" fill="#2a3a5c"/>
  <circle cx="430" cy="173" r="6" fill="#2a3a5c"/>
  <rect x="384" y="220" width="150" height="90" rx="8" fill="url(#acc)" opacity="0.9"/>
  <rect x="384" y="326" width="150" height="18" rx="6" fill="#2a3a5c"/>
  <rect x="384" y="356" width="110" height="14" rx="6" fill="#22304d"/>
  <rect x="560" y="220" width="256" height="18" rx="6" fill="#2a3a5c"/>
  <rect x="560" y="252" width="256" height="14" rx="6" fill="#22304d"/>
  <rect x="560" y="280" width="200" height="14" rx="6" fill="#22304d"/>
  <rect x="560" y="330" width="120" height="40" rx="10" fill="url(#acc)"/>
  <rect x="384" y="392" width="432" height="64" rx="10" fill="#16233d"/>
  <text x="80" y="580" fill="#e2e8f0" font-family="Segoe UI, Arial, sans-serif" font-size="46" font-weight="700">UX / UI Design</text>
  <text x="80" y="622" fill="#7c93b8" font-family="Segoe UI, Arial, sans-serif" font-size="26">Wireframes · Prototipado · Research</text>
</svg>
